<?xml version="1.0" standalone="no"?>
<!DOCTYPE svg PUBLIC "-//W3C//DTD SVG 1.1//EN"
"http://www.w3.org/Graphics/SVG/1.1/DTD/svg11.dtd">

<svg width="458" height="154" view_box="0 0 458 154"
xmlns="http://www.w3.org/2000/svg"
xmlns:link="http://www.w3.org/1999/xlink">\n\n<desc>Généré par Mocodo 2.3.7 le Sat, 12 Jan 2019 21:05:48</desc>

<rect id="frame" x="0" y="0" width="458" height="154" fill="#ffffbf" stroke="none" stroke-width="0"/>

<!-- Association FAIT -->
<line x1="50" y1="77" x2="145" y2="77" stroke="#74add1" stroke-width="2"/>
<text x="96" y="94.0" fill="#d73027" font-family="Verdana" font-size="12">1,N</text>
<line x1="238" y1="77" x2="145" y2="77" stroke="#74add1" stroke-width="2"/>
<text x="173" y="94.0" fill="#d73027" font-family="Verdana" font-size="12">1,1</text>
<line x1="173" y1="96.0" x2="194" y2="96.0" stroke="#d73027" stroke-width="1"/>
<g id="association-FAIT">
	<path d="M 153 52 a 14 14 90 0 1 14 14 V 77 h -44 V 66 a 14 14 90 0 1 14 -14" fill="#abd9e9" stroke="#abd9e9" stroke-width="0"/>
	<path d="M 167 77.0 v 11 a 14 14 90 0 1 -14 14 H 137 a 14 14 90 0 1 -14 -14 V 77.0 H 44" fill="#e0f3f8" stroke="#e0f3f8" stroke-width="0"/>
	<rect x="123" y="52" width="44" height="50" fill="none" rx="14" stroke="#74add1" stroke-width="2"/>
	<line x1="123" y1="77" x2="167" y2="77" stroke="#74add1" stroke-width="1"/>
	<text x="130" y="69.7" fill="#000000" font-family="Verdana" font-size="12">FAIT</text>
</g>

<!-- Association A -->
<line x1="407" y1="77" x2="321" y2="77" stroke="#74add1" stroke-width="2"/>
<text x="339" y="94.0" fill="#d73027" font-family="Verdana" font-size="12">1,1</text>
<line x1="339" y1="96.0" x2="360" y2="96.0" stroke="#d73027" stroke-width="1"/>
<line x1="238" y1="77" x2="321" y2="77" stroke="#74add1" stroke-width="2"/>
<text x="282" y="94.0" fill="#d73027" font-family="Verdana" font-size="12">1,N</text>
<g id="association-A">
	<path d="M 319 52 a 14 14 90 0 1 14 14 V 77 h -24 V 66 a 14 14 90 0 1 14 -14" fill="#abd9e9" stroke="#abd9e9" stroke-width="0"/>
	<path d="M 333 77.0 v 11 a 14 14 90 0 1 -14 14 H 323 a 14 14 90 0 1 -14 -14 V 77.0 H 24" fill="#e0f3f8" stroke="#e0f3f8" stroke-width="0"/>
	<rect x="309" y="52" width="24" height="50" fill="none" rx="14" stroke="#74add1" stroke-width="2"/>
	<line x1="309" y1="77" x2="333" y2="77" stroke="#74add1" stroke-width="1"/>
	<text x="316" y="69.7" fill="#000000" font-family="Verdana" font-size="12">A</text>
</g>

<!-- Entity ROUTE -->
<g id="entity-ROUTE">
	<g id="frame-ROUTE">
		<rect x="199" y="26" width="78" height="25" fill="#fdae61" stroke="#fdae61" stroke-width="0"/>
		<rect x="199" y="51.0" width="78" height="77" fill="#fee090" stroke="#fee090" stroke-width="0"/>
		<rect x="199" y="26" width="78" height="102" fill="none" stroke="#f46d43" stroke-width="2"/>
		<line x1="199" y1="51" x2="277" y2="51" stroke="#f46d43" stroke-width="1"/>
	</g>
	<text x="216" y="43.7" fill="#000000" font-family="Verdana" font-size="12">ROUTE</text>
	<text x="204" y="68.7" fill="#000000" font-family="Verdana" font-size="12">idroute</text>
	<line x1="204" y1="71" x2="248" y2="71" style="fill:none;stroke:#000000;stroke-width:1;stroke-dasharray:4;"/>
	<text x="204" y="85.8" fill="#000000" font-family="Verdana" font-size="12">dateroute</text>
	<text x="204" y="102.8" fill="#000000" font-family="Verdana" font-size="12">debutroute</text>
	<text x="204" y="119.8" fill="#000000" font-family="Verdana" font-size="12">finroute</text>
</g>

<!-- Entity USER -->
<g id="entity-USER">
	<g id="frame-USER">
		<rect x="9" y="9" width="82" height="25" fill="#fdae61" stroke="#fdae61" stroke-width="0"/>
		<rect x="9" y="34.0" width="82" height="111" fill="#fee090" stroke="#fee090" stroke-width="0"/>
		<rect x="9" y="9" width="82" height="136" fill="none" stroke="#f46d43" stroke-width="2"/>
		<line x1="9" y1="34" x2="91" y2="34" stroke="#f46d43" stroke-width="1"/>
	</g>
	<text x="33" y="26.7" fill="#000000" font-family="Verdana" font-size="12">USER</text>
	<text x="14" y="51.7" fill="#000000" font-family="Verdana" font-size="12">idutilisateur</text>
	<line x1="14" y1="54" x2="86" y2="54" stroke="#000000" stroke-width="1"/>
	<text x="14" y="68.7" fill="#000000" font-family="Verdana" font-size="12">pseudo</text>
	<text x="14" y="85.8" fill="#000000" font-family="Verdana" font-size="12">name</text>
	<text x="14" y="102.8" fill="#000000" font-family="Verdana" font-size="12">lastName</text>
	<text x="14" y="119.8" fill="#000000" font-family="Verdana" font-size="12">age</text>
	<text x="14" y="136.8" fill="#000000" font-family="Verdana" font-size="12">password</text>
</g>

<!-- Entity INFOROUTE -->
<g id="entity-INFOROUTE">
	<g id="frame-INFOROUTE">
		<rect x="365" y="18" width="84" height="25" fill="#fdae61" stroke="#fdae61" stroke-width="0"/>
		<rect x="365" y="43.0" width="84" height="93" fill="#fee090" stroke="#fee090" stroke-width="0"/>
		<rect x="365" y="18" width="84" height="118" fill="none" stroke="#f46d43" stroke-width="2"/>
		<line x1="365" y1="43" x2="449" y2="43" stroke="#f46d43" stroke-width="1"/>
	</g>
	<text x="370" y="35.7" fill="#000000" font-family="Verdana" font-size="12">INFOROUTE</text>
	<text x="370" y="60.7" fill="#000000" font-family="Verdana" font-size="12">idInfo</text>
	<line x1="370" y1="63" x2="406" y2="63" style="fill:none;stroke:#000000;stroke-width:1;stroke-dasharray:4;"/>
	<text x="370" y="77.8" fill="#000000" font-family="Verdana" font-size="12">speed</text>
	<text x="370" y="94.8" fill="#000000" font-family="Verdana" font-size="12">duration</text>
	<text x="370" y="111.8" fill="#000000" font-family="Verdana" font-size="12">cardio</text>
	<text x="370" y="128.8" fill="#000000" font-family="Verdana" font-size="12">dateInfo</text>
</g>
</svg>